<?xml version="1.0" encoding="UTF-8" standalone="yes"?>
<!-- Created with sK1/UniConvertor (http://sk1project.org/) -->
<svg xmlns="http://www.w3.org/2000/svg" xmlns:xlink="http://www.w3.org/1999/xlink"
  width="595.276pt" height="841.89pt" viewBox="0 0 595.276 841.89"
  fill-rule="evenodd">
<g>
<path style="stroke:none; fill:none" d="M -0.084 840.469L 17.5553 840.469L 17.5553 823.07L 16.9553 813.59C 21.1552 817.55 25.955 819.83 31.1148 819.83C 43.9543 819.83 56.1938 808.07 56.1938 787.671C 56.1938 769.312 47.3141 757.432 32.9147 757.432C 26.675 757.432 20.6752 760.552 15.9954 764.752L 15.5154 764.752L 14.3155 758.872L -0.084 758.872L -0.084 840.469zM 27.0349 805.43C 24.0351 805.43 20.6752 804.47 17.5553 801.59L 17.5553 777.231C 21.0352 773.512 24.1551 771.832 27.7549 771.832C 34.8346 771.832 38.0745 777.231 38.0745 787.911C 38.0745 800.15 33.1547 805.43 27.0349 805.43z"/>
<path style="stroke:none; fill:none" d="M 88.3569 819.83C 95.0766 819.83 100.596 816.71 105.636 812.27L 106.116 812.27L 107.316 818.39L 121.715 818.39L 121.715 784.311C 121.715 766.072 113.316 757.432 98.0765 757.432C 88.7168 757.432 80.1972 760.672 72.6375 765.232L 78.9972 776.871C 84.757 773.512 89.6768 771.472 94.7166 771.472C 101.196 771.472 103.716 774.832 104.076 780.111C 80.5572 782.511 70.5976 789.351 70.5976 801.83C 70.5976 811.91 77.4373 819.83 88.3569 819.83zM 94.3566 806.15C 90.1568 806.15 87.5169 804.35 87.5169 800.51C 87.5169 795.951 91.5967 792.351 104.076 790.671L 104.076 801.11C 100.956 804.23 98.3164 806.15 94.3566 806.15z"/>
<path style="stroke:none; fill:none" d="M 149.196 841.669C 163.236 841.669 169.596 833.989 175.235 818.99L 195.874 758.872L 178.955 758.872L 171.755 784.431C 170.316 790.071 168.995 795.711 167.676 801.35L 167.196 801.35C 165.636 795.471 164.196 789.831 162.516 784.431L 153.996 758.872L 136.237 758.872L 159.156 816.83L 158.316 819.95C 156.756 824.629 153.756 827.749 147.876 827.749C 146.556 827.749 144.997 827.269 143.917 827.029L 140.797 840.469C 143.197 841.189 145.596 841.669 149.196 841.669z"/>
<path style="stroke:none; fill:none" d="M 223.717 819.83C 230.437 819.83 235.956 816.71 240.996 812.27L 241.476 812.27L 242.676 818.39L 257.076 818.39L 257.076 784.311C 257.076 766.072 248.676 757.432 233.436 757.432C 224.077 757.432 215.557 760.672 207.997 765.232L 214.357 776.871C 220.117 773.512 225.037 771.472 230.077 771.472C 236.556 771.472 239.076 774.832 239.436 780.111C 215.917 782.511 205.958 789.351 205.958 801.83C 205.958 811.91 212.797 819.83 223.717 819.83zM 229.717 806.15C 225.517 806.15 222.877 804.35 222.877 800.51C 222.877 795.951 226.957 792.351 239.436 790.671L 239.436 801.11C 236.316 804.23 233.676 806.15 229.717 806.15z"/>
<path style="stroke:none; fill:none" d="M 309.155 819.83C 321.995 819.83 334.234 808.07 334.234 787.551C 334.234 769.312 325.235 757.432 310.835 757.432C 305.315 757.432 299.676 759.952 295.116 764.032L 295.596 754.912L 295.596 734.273L 277.957 734.273L 277.957 818.39L 291.756 818.39L 293.196 812.03L 293.676 812.03C 298.356 817.19 303.875 819.83 309.155 819.83zM 305.076 805.43C 302.076 805.43 298.716 804.47 295.596 801.59L 295.596 777.231C 298.956 773.512 302.196 771.832 305.796 771.832C 312.875 771.832 316.115 777.231 316.115 787.911C 316.115 800.15 311.195 805.43 305.076 805.43z"/>
<path style="stroke:none; fill:none" d="M 368.916 819.83C 372.876 819.83 375.875 819.23 377.795 818.39L 375.635 805.31C 374.676 805.55 374.195 805.55 373.475 805.55C 372.036 805.55 370.356 804.35 370.356 800.63L 370.356 734.273L 352.716 734.273L 352.716 799.91C 352.716 811.91 356.796 819.83 368.916 819.83z"/>
<path style="stroke:none; fill:none" d="M 419.675 819.83C 426.754 819.83 434.674 817.31 440.794 813.11L 434.914 802.43C 430.594 805.07 426.514 806.39 422.075 806.39C 414.155 806.39 408.155 802.43 406.595 793.791L 442.234 793.791C 442.594 792.351 442.954 789.111 442.954 785.991C 442.954 769.792 434.554 757.432 417.635 757.432C 403.355 757.432 389.556 769.312 389.556 788.631C 389.556 808.31 402.635 819.83 419.675 819.83zM 406.475 782.151C 407.675 774.592 412.475 770.872 417.995 770.872C 425.074 770.872 427.954 775.551 427.954 782.151L 406.475 782.151z"/>
</g>
</svg>